Coordinates
nRows=10
nColumns=38

# SIMM Motion File Header:
name Coordinates
datacolumns 38
datarows 10
otherdata 1
range 1.61000000000000010000 1.61900000000000000000

Units are S.I. units (second, meters, Newtons, ...)
Angles are in degrees.

endheader
time	pelvis_tilt	pelvis_list	pelvis_rotation	pelvis_tx	pelvis_ty	pelvis_tz	hip_flexion_r	hip_adduction_r	hip_rotation_r	knee_angle_r	ankle_angle_r	subtalar_angle_r	mtp_angle_r	hip_flexion_l	hip_adduction_l	hip_rotation_l	knee_angle_l	ankle_angle_l	subtalar_angle_l	mtp_angle_l	lumbar_extension	lumbar_bending	lumbar_rotation	arm_flex_r	arm_add_r	arm_rot_r	elbow_flex_r	pro_sup_r	wrist_flex_r	wrist_dev_r	arm_flex_l	arm_add_l	arm_rot_l	elbow_flex_l	pro_sup_l	wrist_flex_l	wrist_dev_l
      1.61000000000000010000	     -0.19596090284535839000	      7.35309713098248880000	     -0.81774657688392771000	      0.85301776238211369000	      0.99915306971908568000	     -0.35401498753884653000	     29.00756014297018800000	     -6.20813501597450750000	      1.77784133041400060000	    -83.19498721675880400000	      2.15059739683046610000	      0.00000000000001364016	      0.00000000000028461917	      2.98252168295590890000	     14.75055508051382500000	      8.90315134488562880000	    -29.95233163542265600000	     21.10379254153695100000	      0.00000000000013371929	      0.00000000000006645486	    -14.72424588433634800000	    -12.78655805895909500000	     -8.40601578487651400000	    -23.38338912482317500000	    -16.99187987885497000000	     -8.51931697524072540000	     84.45316867423558400000	     69.98413752706264300000	      0.00000000000000320369	     -0.00000000000001112306	     -2.99423333714694980000	    -21.60533924002016400000	     -5.60489402183595690000	     90.41437332935485900000	    102.76551388784603000000	      0.00000000000005756011	      0.00000000000000225681
      1.61100000000000020000	     -0.20799946231846861000	      7.28837889723749650000	     -0.81849479282959714000	      0.85317179150068723000	      0.99973613016991136000	     -0.35397343105607509000	     29.14159630763643300000	     -6.14427061648922910000	      1.73872641245557440000	    -82.86566794374820700000	      2.21570619394869130000	      0.00000000000001350553	      0.00000000000028532432	      2.63278406974723110000	     14.66160294022077300000	      9.01767883217648250000	    -29.63540316529614300000	     20.92207056269631200000	      0.00000000000013381624	      0.00000000000006644229	    -14.69302621018832500000	    -12.70048378774432000000	     -8.47629218069946160000	    -23.51615969878901100000	    -16.98076999873494900000	     -8.51179585970420760000	     84.50134602835325400000	     69.98011206578574700000	      0.00000000000000322019	     -0.00000000000001112782	     -2.92937459017662020000	    -21.55879231518587600000	     -5.61640766461939210000	     90.58860373986065900000	    102.77021565942286000000	      0.00000000000005770527	      0.00000000000000195507
      1.61200000000000010000	     -0.22049300049357429000	      7.22176571399887110000	     -0.81854897937147031000	      0.85333094969526102000	      1.00032472148096900000	     -0.35393127892681570000	     29.27240063905394500000	     -6.07867104428796790000	      1.69766331833809470000	    -82.53011116683428800000	      2.27871883894630980000	      0.00000000000001336800	      0.00000000000028602974	      2.28321601768306200000	     14.56959922279800100000	      9.13122018819076150000	    -29.31734888192810500000	     20.73441158090263100000	      0.00000000000013389875	      0.00000000000006641595	    -14.66055358970311100000	    -12.61206251390272600000	     -8.54543864146159930000	    -23.65024863737850000000	    -16.96952225174373700000	     -8.50694622899472640000	     84.55186067065585600000	     69.98052591055976300000	      0.00000000000000323602	     -0.00000000000001113118	     -2.86641904519172020000	    -21.51281974971709200000	     -5.62536616130813450000	     90.76482688547584100000	    102.76762063035370000000	      0.00000000000005785187	      0.00000000000000163153
      1.61300000000000000000	     -0.23348123313981098000	      7.15325628810856170000	     -0.81789517678964951000	      0.85349509313208127000	      1.00091859616104810000	     -0.35388844923801216000	     29.40001946223753700000	     -6.01131244518934430000	      1.65467059287139210000	    -82.18834623757136600000	      2.33964643758436220000	      0.00000000000001323196	      0.00000000000028673444	      1.93402565824748110000	     14.47452208190854400000	      9.24352362798022040000	    -28.99845195794959800000	     20.54088851030917700000	      0.00000000000013401171	      0.00000000000006639028	    -14.62680843597983600000	    -12.52131234883925100000	     -8.61345652585839080000	    -23.78560323472851200000	    -16.95806149745960300000	     -8.50478145560863470000	     84.60459418109385900000	     69.98532816806726900000	      0.00000000000000325197	     -0.00000000000001113607	     -2.80531313885147160000	    -21.46745304820573000000	     -5.63174052604958670000	     90.94290830423530300000	    102.75784769495885000000	      0.00000000000005799779	      0.00000000000000130938
      1.61400000000000010000	     -0.24700251720398678000	      7.08285248224335180000	     -0.81652047415712636000	      0.85366407343813644000	      1.00151750993674020000	     -0.35384486131644138000	     29.52449824130248500000	     -5.94217286592845540000	      1.60977008603641300000	    -81.84040004333948600000	      2.39849932694894190000	      0.00000000000001309795	      0.00000000000028743905	      1.58541965501108020000	     14.37635509335021500000	      9.35433575318103470000	    -28.67899200613416600000	     20.34156636152582100000	      0.00000000000013410261	      0.00000000000006639072	    -14.59177381775738300000	    -12.42825464432974800000	     -8.68034979511021550000	    -23.92216941862208700000	    -16.94631450529903600000	     -8.50531037183298540000	     84.65942852895871300000	     69.99446062529982300000	      0.00000000000000326856	     -0.00000000000001114170	     -2.74600611156647510000	    -21.42272222763563100000	     -5.63550759127092430000	     91.12271979505381100000	    102.74101944877592000000	      0.00000000000005814274	      0.00000000000000097256
      1.61500000000000000000	     -0.26109366097230280000	      7.01055949818306170000	     -0.81441312856347647000	      0.85383773859799950000	      1.00212122205822300000	     -0.35380043616063633000	     29.64588129364322100000	     -5.87123247703233900000	      1.56298711374055820000	    -81.48629694643162200000	      2.45528644233562640000	      0.00000000000001296328	      0.00000000000028814310	      1.23760226279988640000	     14.27508751356349000000	      9.46340271394220170000	    -28.35924368405194300000	     20.13650160139047100000	      0.00000000000013418508	      0.00000000000006637850	    -14.55543549026136300000	    -12.33291411404857400000	     -8.74612484063021260000	    -24.05989190457628300000	    -16.93421018589328100000	     -8.50853721538367220000	     84.71624631407101400000	     70.00785783987238600000	      0.00000000000000328369	     -0.00000000000001114632	     -2.68844986454951010000	    -21.37865579617946600000	     -5.63664962691215980000	     91.30413935182568300000	    102.71726152711427000000	      0.00000000000005828741	      0.00000000000000063858
      1.61600000000000010000	     -0.27578972627334830000	      6.93638601316683800000	     -0.81156267292577866000	      0.85401593385838359000	      1.00272949561179110000	     -0.35375509688759399000	     29.76421148085215100000	     -5.79847375168658540000	      1.51435058884950300000	    -81.12605870454700600000	      2.51001467979869910000	      0.00000000000001282073	      0.00000000000028884733	      0.89077437906929091000	     14.17071448856714300000	      9.57047137943607140000	    -28.03947531159150900000	     19.92574153774009800000	      0.00000000000013427988	      0.00000000000006634228	    -14.51778193610809000000	    -12.23531890108604400000	     -8.81079031316662050000	    -24.19871434825534000000	    -16.92167983110600800000	     -8.51446157554137710000	     84.77493100795136600000	     70.02544722644152800000	      0.00000000000000329865	     -0.00000000000001114978	     -2.63259881217935200000	    -21.33528071856357800000	     -5.63515395986734460000	     91.48705108951378400000	    102.68670195011588000000	      0.00000000000005843176	      0.00000000000000030979
      1.61700000000000000000	     -0.29112382326291580000	      6.86034427510897870000	     -0.80796001436876042000	      0.85419850264005748000	      1.00334209784010310000	     -0.35370876918600241000	     29.87952987867982900000	     -5.72388160703158540000	      1.46389312761795080000	    -80.75970437508738100000	      2.56268825490812620000	      0.00000000000001267281	      0.00000000000028955018	      0.54513258770692408000	     14.06323722030313300000	      9.67529051449880840000	    -27.71994749949147200000	     19.70932374212154800000	      0.00000000000013438735	      0.00000000000006628449	    -14.47880441566192300000	    -12.13550059959807500000	     -8.87435695289822850000	    -24.33857949666817800000	    -16.90865736115876700000	     -8.52307833989724630000	     84.83536719552735400000	     70.04714913973363400000	      0.00000000000000331467	     -0.00000000000001115335	     -2.57840973037949930000	    -21.29262237011664300000	     -5.63101259343845580000	     91.67134516267114500000	    102.64947047336577000000	      0.00000000000005857592	     -0.00000000000000000981
      1.61800000000000010000	     -0.30712689805069510000	      6.78245016068042080000	     -0.80359752471208579000	      0.85438528745686704000	      1.00395880046781220000	     -0.35366138176812606000	     29.99187542756987700000	     -5.64744351245591500000	      1.41165113557848620000	    -80.38725020488828900000	      2.61330805807939150000	      0.00000000000001253261	      0.00000000000029025287	      0.20086819503644707000	     13.95266309489370100000	      9.77761195890633060000	    -27.40091178534711600000	     19.48727548557607700000	      0.00000000000013451977	      0.00000000000006620680	    -14.43849702651364300000	    -12.03349423665496700000	     -8.93683741991225670000	    -24.47942933845250800000	    -16.89507957754072700000	     -8.53437764181922100000	     84.89744081786271600000	     70.07287695452933500000	      0.00000000000000333094	     -0.00000000000001115871	     -2.52584160175380030000	    -21.25070448119081200000	     -5.62422182666391370000	     91.85691767648499700000	    102.60569794343134000000	      0.00000000000005871969	     -0.00000000000000033997
      1.61900000000000000000	     -0.32382692310561173000	      6.70272024180657410000	     -0.79846848974224394000	      0.85457613118652664000	      1.00457938147679780000	     -0.35361286748103093000	     30.10128301404565900000	     -5.56914672970787630000	      1.35766306126499850000	    -80.00870828328488900000	      2.66187069727358280000	      0.00000000000001238607	      0.00000000000029095563	     -0.14183439891489322000	     13.83900257596061100000	      9.87719220878845760000	    -27.08260984434694100000	     19.25961482839148400000	      0.00000000000013468489	      0.00000000000006610931	    -14.39685747110263800000	    -11.92933476289045000000	     -8.99824611337175990000	    -24.62120512302519500000	    -16.88088704407089200000	     -8.54834486329795420000	     84.96103944162891300000	     70.10253688646389500000	      0.00000000000000334689	     -0.00000000000001116443	     -2.47485526013603430000	    -21.20954827905932700000	     -5.61478195374686710000	     92.04367012609748100000	    102.55551606081690000000	      0.00000000000005886292	     -0.00000000000000066448
